PathFileType	4	(X/Y/Z)	 s02c0403.trc
DataRate	CameraRate	NumFrames	NumMarkers	Units	OrigDataRate	OrigDataStartFrame	OrigNumFrames
200	200	5	51	mm	200	1501	2000
Frame#	Time	racr			lacr			c7			jug			rlel			rdr			llel			ldr			s2			lic			ric			lasi			rasi			rpsi			lpsi			rgt			lgt			rth1			rth2			rth3			rth4			rlfc			rmfc			rsh1			rsh2			rsh3			rsh4			rlmal			rmmal			rcal			rtoe			rmt5			rmt1			lth1			lth2			lth4			lth3			llfc			lmfc			lsh1			lsh2			lsh3			lsh4			llmal			lmmal			lcal			ltoe			lmt5			SBIKE			LBIKE			RBIKE			
		X1	Y1	Z1	X2	Y2	Z2	X3	Y3	Z3	X4	Y4	Z4	X5	Y5	Z5	X6	Y6	Z6	X7	Y7	Z7	X8	Y8	Z8	X9	Y9	Z9	X10	Y10	Z10	X11	Y11	Z11	X12	Y12	Z12	X13	Y13	Z13	X14	Y14	Z14	X15	Y15	Z15	X16	Y16	Z16	X17	Y17	Z17	X18	Y18	Z18	X19	Y19	Z19	X20	Y20	Z20	X21	Y21	Z21	X22	Y22	Z22	X23	Y23	Z23	X24	Y24	Z24	X25	Y25	Z25	X26	Y26	Z26	X27	Y27	Z27	X28	Y28	Z28	X29	Y29	Z29	X30	Y30	Z30	X31	Y31	Z31	X32	Y32	Z32	X33	Y33	Z33	X34	Y34	Z34	X35	Y35	Z35	X36	Y36	Z36	X37	Y37	Z37	X38	Y38	Z38	X39	Y39	Z39	X40	Y40	Z40	X41	Y41	Z41	X42	Y42	Z42	X43	Y43	Z43	X44	Y44	Z44	X45	Y45	Z45	X46	Y46	Z46	X47	Y47	Z47	X48	Y48	Z48	X49	Y49	Z49	X50	Y50	Z50	X51	Y51	Z51	
1501	7.5050	762.499414	1160.859649	-99.634497	799.318039	1226.515072	-454.955485	794.698631	1245.821324	-272.467933	NaN	NaN	NaN	566.123604	992.858986	-33.142239	697.376285	878.421433	-115.566084	630.865610	1050.381597	-617.144091	702.139591	876.720932	-517.950912	246.732996	1192.627402	-326.486025	371.249606	1179.225079	-467.839042	354.206687	1142.564863	-172.646359	404.076733	1133.226449	-443.090566	405.828411	1112.575372	-204.519960	265.916377	1210.970205	-281.690362	282.327434	1229.312173	-364.680380	307.099296	1060.674434	-152.337125	320.522956	1091.457693	-510.023652	365.465120	982.376087	-140.336103	412.853981	907.599534	-141.991023	420.410866	824.400862	-121.554824	443.539115	915.282067	-164.386428	437.179615	688.493204	-154.982929	431.374859	668.907373	-257.189235	414.105382	582.636527	-130.248336	414.671528	494.336225	-143.686571	374.623020	418.081004	-139.223394	430.072125	492.212326	-179.783871	334.771082	305.169945	-143.173357	347.722096	322.037803	-222.947427	252.759766	282.631942	-184.740602	521.575527	174.867660	-186.462561	413.565802	197.426789	-125.509425	445.340566	208.402035	-230.466450	431.602627	998.142107	-506.130686	502.014937	947.824719	-496.507094	524.522309	968.012923	-475.826682	539.120984	867.288225	-497.369905	583.971930	779.587429	-470.062496	563.060249	753.797370	-364.138085	506.810848	711.264871	-492.733224	440.058887	657.775247	-479.056170	352.849361	638.289262	-490.247497	448.100563	642.940214	-441.832861	247.054292	605.959071	-488.041146	253.081094	592.287246	-408.973956	170.254331	632.198334	-447.505166	287.266191	370.537745	-432.115979	221.226852	450.575663	-499.484970	-125.507181	872.656430	-306.396389	37.302508	87.224115	-514.124778	33.950771	83.348900	-113.945854	
1502	7.5100	764.611407	1161.948256	-102.355129	798.377951	1226.816013	-457.852904	795.098015	1246.377030	-275.539023	NaN	NaN	NaN	567.961743	994.720525	-33.437979	698.358234	878.710478	-115.049090	629.986652	1049.582436	-618.906397	702.044282	877.047980	-518.495802	246.320655	1189.479682	-324.000593	369.725917	1178.737886	-466.623981	355.479235	1139.456924	-171.416574	403.376864	1133.038068	-442.607619	406.683605	1109.045401	-203.382582	265.535160	1208.058179	-279.292182	280.799074	1226.605070	-362.445699	308.366433	1056.661696	-151.327810	319.883359	1091.442723	-509.103987	363.790528	977.594001	-140.164779	409.425587	901.729669	-142.249727	414.890404	818.287191	-122.224794	439.596363	908.789217	-163.634178	428.158802	682.796101	-155.769527	421.167443	663.036612	-257.776291	405.255276	577.471174	-130.624362	406.404222	489.148349	-144.147868	366.974339	412.549250	-139.159871	422.068373	486.757193	-181.105070	327.944750	299.360945	-142.883952	340.906110	316.237723	-222.451535	245.852618	278.015829	-184.457178	513.233113	166.130044	-186.668782	405.615578	190.409342	-125.566919	436.152432	199.440356	-232.547408	433.083908	1000.523868	-505.641396	504.692264	952.138618	-496.045075	526.390450	973.283184	-476.076190	544.016053	872.361051	-495.472177	591.182433	786.137855	-467.839516	569.761334	760.746020	-361.716475	514.207569	717.742214	-490.587904	447.197505	664.431184	-476.840424	359.971681	645.155312	-488.459484	454.949285	649.742492	-439.559347	254.168734	613.440689	-486.696473	259.919079	599.802916	-407.269167	176.508237	638.667893	-446.305940	296.780070	378.881950	-432.764074	229.999383	458.077322	-499.019971	-125.514467	872.637090	-306.432771	37.310701	87.195813	-514.126327	33.955757	83.338583	-113.952236	
1503	7.5150	766.857952	1163.257898	-105.193435	797.218620	1227.048062	-461.064541	795.465774	1246.902631	-278.733100	NaN	NaN	NaN	569.974995	996.853135	-33.622147	699.247247	879.010644	-114.543610	628.931479	1048.958138	-621.436478	701.996238	877.386213	-519.091911	245.882668	1187.046247	-321.687757	368.304917	1178.066936	-465.490440	356.727238	1136.360706	-170.227654	402.595095	1132.921838	-442.147307	407.328891	1105.396678	-202.121580	265.125243	1205.268304	-276.689834	279.490541	1224.671959	-359.849761	309.501603	1052.776528	-150.294946	319.061412	1091.563980	-508.043627	362.328681	973.589072	-140.016702	405.647845	896.613508	-142.264968	409.443412	812.887775	-122.820736	436.156318	903.364334	-164.467945	419.211792	677.892607	-156.502132	410.219388	658.396741	-258.339373	396.240419	572.968692	-131.103190	398.024991	484.623296	-144.335784	359.081498	407.703743	-138.966874	413.382516	482.500862	-181.049926	320.794818	294.238003	-142.516798	333.829282	310.896217	-221.948972	238.793021	274.239870	-184.120950	504.413796	158.064044	-186.823190	397.281815	183.936799	-125.676892	427.123253	191.780062	-233.952890	434.224364	1002.867579	-505.394621	507.190493	956.574158	-495.443492	527.213930	978.162373	-476.139490	548.472369	877.621815	-494.063800	598.138747	792.961206	-465.859896	576.231833	767.515092	-360.119716	521.600657	724.262883	-488.162233	454.472217	671.125091	-474.836862	367.308230	651.831347	-486.714922	462.061372	656.467167	-437.434659	261.471039	620.352879	-485.222964	267.011262	606.602686	-405.808788	183.417211	644.664713	-445.489816	305.632713	385.247354	-431.322108	238.982781	464.963512	-498.513365	-125.570679	872.596911	-306.551535	37.298294	87.132333	-514.167084	33.949612	83.321090	-113.958449	
1504	7.5200	769.149524	1164.641743	-108.084663	796.027970	1227.110561	-464.294181	795.805206	1247.419036	-282.054611	NaN	NaN	NaN	572.087440	999.142886	-33.688874	700.189866	879.316919	-113.989278	627.683452	1048.296362	-624.294618	702.005088	877.788142	-519.784816	245.380423	1185.394144	-319.661088	366.698178	1177.742392	-464.672142	357.992705	1133.269338	-169.061407	401.814164	1132.845466	-441.607439	407.766208	1101.523781	-201.149914	264.872017	1202.709392	-274.133695	278.319137	1222.949130	-357.249678	310.428968	1049.156867	-149.039851	318.234665	1091.579720	-507.194950	360.576244	970.326819	-139.856194	401.798172	892.284735	-142.737777	403.982476	808.334094	-123.425588	432.311673	898.460659	-164.473334	410.277505	673.769904	-157.127130	400.022836	653.994808	-258.640821	386.967228	569.134318	-131.215711	389.299554	480.590834	-144.271946	351.096097	403.633058	-138.547076	404.622822	478.615126	-181.023444	313.437969	289.799731	-142.158635	326.499879	306.347620	-221.476420	231.440887	270.622500	-184.206076	495.169767	150.380868	-187.018335	388.524858	178.128918	-125.752097	417.895966	184.900399	-234.719828	435.146587	1005.316455	-504.973461	509.369823	961.140073	-494.614128	529.801988	983.352249	-473.859557	552.749251	883.235945	-492.769467	604.946128	800.092385	-464.117264	583.022483	774.968035	-357.561252	528.951330	730.831059	-486.170383	461.840599	677.706547	-472.875735	374.732030	658.285139	-485.058178	469.269920	663.050790	-435.424108	268.961387	626.749870	-483.805764	274.456162	612.762382	-404.378983	190.584766	649.992364	-444.060800	316.347205	392.070829	-431.732741	248.091150	471.329634	-498.123841	-125.662002	872.531969	-306.646476	37.319900	87.034006	-514.201522	33.944661	83.316341	-113.978916	
1505	7.5250	771.507047	1166.188186	-111.030060	794.627138	1227.031841	-467.685787	796.111613	1247.880797	-285.386642	NaN	NaN	NaN	574.417026	1001.283001	-33.678846	700.905863	879.806051	-113.214123	626.445003	1047.608399	-627.364843	701.983811	878.350506	-520.526425	245.234488	1183.327837	-316.729757	365.142910	1177.398443	-463.608698	359.511139	1130.478512	-167.902869	401.102455	1132.825842	-441.147449	408.027247	1097.713089	-200.430757	264.533834	1200.083122	-271.497762	277.195643	1221.029778	-354.813937	311.111395	1045.728549	-147.892504	317.365144	1091.712349	-506.206687	358.435598	967.454458	-139.227397	397.763535	888.576154	-143.344529	398.157139	804.640674	-123.647975	428.440716	893.904578	-164.964820	401.369191	670.300118	-157.530980	389.936284	650.294072	-259.017155	377.684512	565.752087	-131.107892	380.456330	477.453227	-143.963008	342.694495	400.016336	-138.087697	395.817690	475.326045	-180.614859	305.880095	285.916781	-141.816263	319.131541	302.350304	-220.993587	225.195502	267.030123	-184.944054	485.610383	143.419301	-187.024869	379.425749	172.838585	-125.703053	408.516356	178.843106	-235.513383	435.851875	1007.863421	-504.499663	511.445468	966.119024	-493.882439	530.948231	988.436779	-472.786035	556.812032	888.998054	-491.840133	611.394460	807.387585	-462.614288	589.684648	782.350181	-355.729542	536.120984	737.598528	-484.370148	469.213075	684.199468	-471.134588	382.167370	664.499895	-483.534123	476.789423	670.167894	-434.360404	276.431377	632.624072	-482.243863	282.044965	618.355733	-402.757281	197.560400	654.682969	-442.751198	326.873242	398.713265	-432.751934	257.372859	477.208138	-497.529530	-125.721031	872.505572	-306.763161	37.306874	86.993094	-514.211838	33.923086	83.316742	-113.984147	
